<svg xmlns="http://www.w3.org/2000/svg" viewBox="0 0 800 500" width="800" height="500" role="img"><rect width="800" height="500" fill="#f2e9e3"/><rect x="153" y="121" width="62" height="62" rx="12" fill="#e6d5cb" opacity="0.85"/><rect x="225" y="121" width="62" height="62" rx="12" fill="#a8412a" opacity="1"/><rect x="239" y="147" width="34" height="8" rx="4" fill="#f2e9e3" opacity="0.9"/><rect x="297" y="121" width="62" height="62" rx="12" fill="#e6d5cb" opacity="0.85"/><rect x="369" y="121" width="62" height="62" rx="12" fill="#e6d5cb" opacity="0.85"/><rect x="441" y="121" width="62" height="62" rx="12" fill="#e6d5cb" opacity="0.85"/><rect x="513" y="121" width="62" height="62" rx="12" fill="#e6d5cb" opacity="0.85"/><rect x="585" y="121" width="62" height="62" rx="12" fill="#a8412a" opacity="1"/><rect x="599" y="147" width="34" height="8" rx="4" fill="#f2e9e3" opacity="0.9"/><rect x="153" y="193" width="62" height="62" rx="12" fill="#e6d5cb" opacity="0.85"/><rect x="225" y="193" width="62" height="62" rx="12" fill="#e6d5cb" opacity="0.85"/><rect x="297" y="193" width="62" height="62" rx="12" fill="#e6d5cb" opacity="0.85"/><rect x="369" y="193" width="62" height="62" rx="12" fill="#e6d5cb" opacity="0.85"/><rect x="441" y="193" width="62" height="62" rx="12" fill="#e6d5cb" opacity="0.85"/><rect x="513" y="193" width="62" height="62" rx="12" fill="#e6d5cb" opacity="0.85"/><rect x="585" y="193" width="62" height="62" rx="12" fill="#e6d5cb" opacity="0.85"/><rect x="153" y="265" width="62" height="62" rx="12" fill="#e6d5cb" opacity="0.85"/><rect x="225" y="265" width="62" height="62" rx="12" fill="#e6d5cb" opacity="0.85"/><rect x="297" y="265" width="62" height="62" rx="12" fill="#e6d5cb" opacity="0.85"/><rect x="369" y="265" width="62" height="62" rx="12" fill="#a8412a" opacity="1"/><rect x="383" y="291" width="34" height="8" rx="4" fill="#f2e9e3" opacity="0.9"/><rect x="441" y="265" width="62" height="62" rx="12" fill="#e6d5cb" opacity="0.85"/><rect x="513" y="265" width="62" height="62" rx="12" fill="#e6d5cb" opacity="0.85"/><rect x="585" y="265" width="62" height="62" rx="12" fill="#e6d5cb" opacity="0.85"/><rect x="153" y="337" width="62" height="62" rx="12" fill="#e6d5cb" opacity="0.85"/><rect x="225" y="337" width="62" height="62" rx="12" fill="#e6d5cb" opacity="0.85"/><rect x="297" y="337" width="62" height="62" rx="12" fill="#a8412a" opacity="1"/><rect x="311" y="363" width="34" height="8" rx="4" fill="#f2e9e3" opacity="0.9"/><rect x="369" y="337" width="62" height="62" rx="12" fill="#e6d5cb" opacity="0.85"/><rect x="441" y="337" width="62" height="62" rx="12" fill="#e6d5cb" opacity="0.85"/><rect x="513" y="337" width="62" height="62" rx="12" fill="#e6d5cb" opacity="0.85"/><rect x="585" y="337" width="62" height="62" rx="12" fill="#a8412a" opacity="1"/><rect x="599" y="363" width="34" height="8" rx="4" fill="#f2e9e3" opacity="0.9"/></svg>