<svg xmlns="http://www.w3.org/2000/svg" viewBox="0 0 800 500" width="800" height="500" role="img"><rect width="800" height="500" fill="#f6efe7"/><rect x="170" y="77" width="460" height="46" rx="14" fill="#f0d9c6"/><rect x="190" y="95" width="148" height="10" rx="5" fill="#c8794f" opacity="0.55"/><rect x="170" y="137" width="460" height="46" rx="14" fill="#f0d9c6"/><rect x="190" y="155" width="164" height="10" rx="5" fill="#c8794f" opacity="0.55"/><rect x="170" y="197" width="460" height="46" rx="14" fill="#f0d9c6"/><rect x="190" y="215" width="151" height="10" rx="5" fill="#c8794f" opacity="0.55"/><rect x="170" y="257" width="460" height="46" rx="14" fill="#f0d9c6"/><rect x="190" y="275" width="162" height="10" rx="5" fill="#c8794f" opacity="0.55"/><rect x="170" y="317" width="460" height="46" rx="14" fill="#d9531e"/><rect x="190" y="335" width="95" height="10" rx="5" fill="#f6efe7" opacity="0.92"/><circle cx="596" cy="340" r="9" fill="#f6efe7" opacity="0.92"/><rect x="170" y="377" width="460" height="46" rx="14" fill="#f0d9c6"/><rect x="190" y="395" width="148" height="10" rx="5" fill="#c8794f" opacity="0.55"/></svg>